<svg width="674" height="674" viewBox="0 0 674 674" fill="none" xmlns="http://www.w3.org/2000/svg">
<path d="M436.075 250.083C477.005 272.272 525.183 304.703 543.09 355.483C560.997 405.836 548.206 474.538 507.703 532.146C467.199 589.753 398.556 636.266 329.061 637.973C259.139 639.253 187.938 595.301 142.744 537.693C97.5507 480.086 78.7912 408.823 68.5587 327.319C58.7526 246.242 57.4735 154.924 102.667 132.734C147.86 110.545 239.1 157.911 300.921 186.928C363.169 216.372 395.572 227.893 436.075 250.083Z" fill="#1956BD" fill-opacity="0.2"/>
<path opacity="0.3" d="M55.9152 442.203L319.615 230.625L48.9305 433.2C48.0277 433.515 47.2124 434.041 46.5522 434.735C45.8919 435.428 45.4058 436.27 45.1341 437.189C44.8624 438.109 44.813 439.08 44.99 440.021C45.1669 440.963 45.5651 441.849 46.1515 442.605C46.738 443.361 47.4957 443.965 48.362 444.368C49.2283 444.771 50.1781 444.96 51.1326 444.921C52.0872 444.881 53.019 444.614 53.8507 444.142C54.6825 443.669 55.3902 443.004 55.9152 442.203Z" fill="#F0F0F0"/>
<path d="M361.472 555.5C361.111 557.263 362.247 558.985 364.011 559.346C365.774 559.707 367.496 558.57 367.857 556.807C368.218 555.044 367.081 553.322 365.318 552.961C363.555 552.6 361.833 553.737 361.472 555.5Z" fill="#B2842B"/>
<path d="M445.176 541.948C444.965 542.978 445.629 543.984 446.659 544.195C447.689 544.406 448.696 543.742 448.906 542.712C449.117 541.681 448.453 540.675 447.423 540.464C446.393 540.253 445.387 540.918 445.176 541.948Z" fill="#F0F0F0"/>
<path d="M140.795 167.865C140.584 168.896 141.249 169.902 142.279 170.112C143.309 170.323 144.315 169.659 144.526 168.629C144.737 167.599 144.073 166.593 143.042 166.382C142.012 166.171 141.006 166.835 140.795 167.865Z" fill="#F0F0F0"/>
<path d="M260.496 515.175C260.285 516.206 260.949 517.212 261.98 517.422C263.01 517.633 264.016 516.969 264.227 515.939C264.438 514.909 263.773 513.903 262.743 513.692C261.713 513.481 260.707 514.145 260.496 515.175Z" fill="#F0F0F0"/>
<path d="M292.153 270.867C291.792 272.63 292.929 274.352 294.692 274.713C296.455 275.074 298.177 273.937 298.538 272.174C298.899 270.41 297.762 268.688 295.999 268.327C294.236 267.966 292.514 269.103 292.153 270.867Z" fill="#B2842B"/>
<path d="M226.515 223.149C226.304 224.179 226.968 225.185 227.998 225.396C229.028 225.607 230.034 224.943 230.245 223.913C230.456 222.882 229.792 221.876 228.762 221.666C227.732 221.455 226.726 222.119 226.515 223.149Z" fill="#F0F0F0"/>
<path d="M479.152 472.532C478.941 473.562 479.606 474.568 480.636 474.779C481.666 474.99 482.672 474.326 482.883 473.295C483.094 472.265 482.43 471.259 481.399 471.048C480.369 470.837 479.363 471.502 479.152 472.532Z" fill="#F0F0F0"/>
<path d="M104.382 279.91C104.171 280.94 104.835 281.946 105.865 282.157C106.896 282.368 107.902 281.704 108.112 280.673C108.323 279.643 107.659 278.637 106.629 278.426C105.599 278.215 104.593 278.88 104.382 279.91Z" fill="#F0F0F0"/>
<path d="M490.326 330.163C490.115 331.193 490.78 332.199 491.81 332.41C492.84 332.621 493.846 331.957 494.057 330.927C494.268 329.897 493.604 328.891 492.573 328.68C491.543 328.469 490.537 329.133 490.326 330.163Z" fill="#F0F0F0"/>
<path d="M389.894 359.919C389.683 360.949 390.348 361.956 391.378 362.166C392.408 362.377 393.414 361.713 393.625 360.683C393.836 359.653 393.172 358.647 392.141 358.436C391.111 358.225 390.105 358.889 389.894 359.919Z" fill="#F0F0F0"/>
<path d="M182.846 240.516C182.635 241.547 183.299 242.553 184.33 242.764C185.36 242.974 186.366 242.31 186.577 241.28C186.788 240.25 186.124 239.244 185.093 239.033C184.063 238.822 183.057 239.486 182.846 240.516Z" fill="#F0F0F0"/>
<path d="M126.112 456.219C125.901 457.249 126.565 458.256 127.595 458.466C128.625 458.677 129.632 458.013 129.842 456.983C130.053 455.953 129.389 454.947 128.359 454.736C127.329 454.525 126.323 455.189 126.112 456.219Z" fill="#F0F0F0"/>
<path d="M254.539 381.879C254.328 382.909 254.992 383.915 256.022 384.126C257.052 384.337 258.059 383.672 258.269 382.642C258.48 381.612 257.816 380.606 256.786 380.395C255.756 380.184 254.75 380.848 254.539 381.879Z" fill="#F0F0F0"/>
<path d="M370.38 456.806C370.169 457.836 370.833 458.842 371.863 459.053C372.893 459.264 373.899 458.6 374.11 457.569C374.321 456.539 373.657 455.533 372.627 455.322C371.597 455.111 370.59 455.776 370.38 456.806Z" fill="#F0F0F0"/>
<path d="M289.836 533.428C289.418 535.471 290.735 537.466 292.778 537.884C294.82 538.302 296.815 536.985 297.233 534.943C297.651 532.9 296.334 530.905 294.292 530.487C292.249 530.069 290.254 531.386 289.836 533.428Z" fill="#B3842B"/>
<path d="M443.005 408.447C442.587 410.489 443.904 412.484 445.947 412.902C447.989 413.32 449.984 412.004 450.402 409.961C450.82 407.918 449.503 405.923 447.461 405.505C445.418 405.087 443.423 406.404 443.005 408.447Z" fill="#B3842B"/>
<path d="M188.613 356.371C188.194 358.414 189.511 360.409 191.554 360.827C193.597 361.245 195.591 359.928 196.01 357.885C196.428 355.843 195.111 353.848 193.068 353.43C191.026 353.012 189.031 354.328 188.613 356.371Z" fill="#B3842B"/>
<path d="M510 363C576.274 363 630 309.274 630 243C630 176.726 576.274 123 510 123C443.726 123 390 176.726 390 243C390 309.274 443.726 363 510 363Z" fill="#E6E6E6"/>
<path d="M498.197 174.147C505.802 174.147 511.967 167.982 511.967 160.377C511.967 152.772 505.802 146.606 498.197 146.606C490.592 146.606 484.426 152.772 484.426 160.377C484.426 167.982 490.592 174.147 498.197 174.147Z" fill="#CBCBCB"/>
<path d="M521.803 311.853C529.409 311.853 535.574 305.687 535.574 298.082C535.574 290.477 529.409 284.312 521.803 284.312C514.198 284.312 508.033 290.477 508.033 298.082C508.033 305.687 514.198 311.853 521.803 311.853Z" fill="#CBCBCB"/>
<path d="M574.918 231.197C580.35 231.197 584.754 226.793 584.754 221.36C584.754 215.928 580.35 211.524 574.918 211.524C569.486 211.524 565.082 215.928 565.082 221.36C565.082 226.793 569.486 231.197 574.918 231.197Z" fill="#CBCBCB"/>
<path d="M462.787 284.312C480.17 284.312 494.262 270.22 494.262 252.836C494.262 235.453 480.17 221.361 462.787 221.361C445.404 221.361 431.312 235.453 431.312 252.836C431.312 270.22 445.404 284.312 462.787 284.312Z" fill="#CBCBCB"/>
</svg>
